<mxfile host="app.diagrams.net" modified="2024-04-30T10:05:37.301Z" agent="Mozilla/5.0 (Windows NT 10.0; Win64; x64) AppleWebKit/537.36 (KHTML, like Gecko) Chrome/124.0.0.0 Safari/537.36" etag="djr7yVmlDMw5isLbDSGU" version="24.3.0" type="device">
  <diagram name="PÃ¡gina-1" id="IImMzdy7fr7vdYNQviXE">
    <mxGraphModel dx="1434" dy="746" grid="1" gridSize="10" guides="1" tooltips="1" connect="1" arrows="1" fold="1" page="1" pageScale="1" pageWidth="827" pageHeight="1169" math="0" shadow="0">
      <root>
        <mxCell id="0" />
        <mxCell id="1" parent="0" />
        <mxCell id="Ocwk12Y5cSqkFi2VKCqd-1" value="Server" style="rounded=0;whiteSpace=wrap;html=1;" vertex="1" parent="1">
          <mxGeometry x="320" y="300" width="120" height="60" as="geometry" />
        </mxCell>
        <mxCell id="Ocwk12Y5cSqkFi2VKCqd-3" value="Server" style="rounded=0;whiteSpace=wrap;html=1;" vertex="1" parent="1">
          <mxGeometry x="330" y="310" width="120" height="60" as="geometry" />
        </mxCell>
        <mxCell id="Ocwk12Y5cSqkFi2VKCqd-6" style="edgeStyle=orthogonalEdgeStyle;rounded=0;orthogonalLoop=1;jettySize=auto;html=1;entryX=0;entryY=0.5;entryDx=0;entryDy=0;" edge="1" parent="1" source="Ocwk12Y5cSqkFi2VKCqd-4" target="Ocwk12Y5cSqkFi2VKCqd-5">
          <mxGeometry relative="1" as="geometry" />
        </mxCell>
        <mxCell id="Ocwk12Y5cSqkFi2VKCqd-8" style="edgeStyle=orthogonalEdgeStyle;rounded=0;orthogonalLoop=1;jettySize=auto;html=1;entryX=0;entryY=0.5;entryDx=0;entryDy=0;" edge="1" parent="1" source="Ocwk12Y5cSqkFi2VKCqd-4" target="Ocwk12Y5cSqkFi2VKCqd-7">
          <mxGeometry relative="1" as="geometry" />
        </mxCell>
        <mxCell id="Ocwk12Y5cSqkFi2VKCqd-4" value="Server" style="rounded=0;whiteSpace=wrap;html=1;" vertex="1" parent="1">
          <mxGeometry x="340" y="320" width="120" height="60" as="geometry" />
        </mxCell>
        <mxCell id="Ocwk12Y5cSqkFi2VKCqd-5" value="Entities DB" style="rounded=1;whiteSpace=wrap;html=1;" vertex="1" parent="1">
          <mxGeometry x="570" y="180" width="120" height="60" as="geometry" />
        </mxCell>
        <mxCell id="Ocwk12Y5cSqkFi2VKCqd-7" value="Data Warehouse" style="rounded=1;whiteSpace=wrap;html=1;" vertex="1" parent="1">
          <mxGeometry x="570" y="460" width="120" height="60" as="geometry" />
        </mxCell>
        <mxCell id="Ocwk12Y5cSqkFi2VKCqd-9" value="" style="endArrow=none;dashed=1;html=1;dashPattern=1 3;strokeWidth=2;rounded=0;entryX=0.5;entryY=1;entryDx=0;entryDy=0;exitX=0.5;exitY=0;exitDx=0;exitDy=0;" edge="1" parent="1" source="Ocwk12Y5cSqkFi2VKCqd-7" target="Ocwk12Y5cSqkFi2VKCqd-5">
          <mxGeometry width="50" height="50" relative="1" as="geometry">
            <mxPoint x="530" y="370" as="sourcePoint" />
            <mxPoint x="580" y="320" as="targetPoint" />
          </mxGeometry>
        </mxCell>
        <mxCell id="Ocwk12Y5cSqkFi2VKCqd-10" value="references" style="edgeLabel;html=1;align=center;verticalAlign=middle;resizable=0;points=[];" vertex="1" connectable="0" parent="Ocwk12Y5cSqkFi2VKCqd-9">
          <mxGeometry x="0.2364" y="-1" relative="1" as="geometry">
            <mxPoint x="-1" y="26" as="offset" />
          </mxGeometry>
        </mxCell>
        <mxCell id="Ocwk12Y5cSqkFi2VKCqd-11" value="Data Warehouse" style="rounded=1;whiteSpace=wrap;html=1;" vertex="1" parent="1">
          <mxGeometry x="580" y="470" width="120" height="60" as="geometry" />
        </mxCell>
        <mxCell id="Ocwk12Y5cSqkFi2VKCqd-12" value="Data Warehouse" style="rounded=1;whiteSpace=wrap;html=1;" vertex="1" parent="1">
          <mxGeometry x="590" y="480" width="120" height="60" as="geometry" />
        </mxCell>
        <mxCell id="Ocwk12Y5cSqkFi2VKCqd-13" value="Entities DB" style="rounded=1;whiteSpace=wrap;html=1;" vertex="1" parent="1">
          <mxGeometry x="580" y="190" width="120" height="60" as="geometry" />
        </mxCell>
      </root>
    </mxGraphModel>
  </diagram>
</mxfile>
